<svg width="1921" height="945" viewBox="0 0 1921 945" fill="none" xmlns="http://www.w3.org/2000/svg">
<g clip-path="url(#clip0_477_3435)">
<g filter="url(#filter0_i_477_3435)">
<path d="M1912.69 105.655L1490.25 -102.027C1486.44 -103.902 1481.97 -103.905 1478.15 -102.034L1046 109.741V484.841L1484.2 700.976L1833.92 525.279V650.777L1484.2 825.08L1046 611.733V722.775C1046 726.5 1048.13 729.897 1051.48 731.524L1485.12 942.037C1488.97 943.905 1493.47 943.873 1497.29 941.952L1921 728.865V375.26C1921 368.526 1913.97 364.097 1907.9 367.002L1576.9 525.279V406.753L1921 233.845V119.003C1921 113.333 1917.78 108.156 1912.69 105.655Z" fill="white" fill-opacity="0.02"/>
</g>
<path d="M1912.69 105.655L1490.25 -102.027C1486.44 -103.902 1481.97 -103.905 1478.15 -102.034L1046 109.741V484.841L1484.2 700.976L1833.92 525.279V650.777L1484.2 825.08L1046 611.733V722.775C1046 726.5 1048.13 729.897 1051.48 731.524L1485.12 942.037C1488.97 943.905 1493.47 943.873 1497.29 941.952L1921 728.865V375.26C1921 368.526 1913.97 364.097 1907.9 367.002L1576.9 525.279V406.753L1921 233.845V119.003C1921 113.333 1917.78 108.156 1912.69 105.655Z" stroke="url(#paint0_linear_477_3435)"/>
<g style="mix-blend-mode:overlay">
<g filter="url(#filter1_i_477_3435)">
<path d="M1916 485L1490.46 265.232C1486.53 263.203 1481.87 263.19 1477.93 265.197L1046.5 485L1484.2 700.5L1916 485Z" fill="white" fill-opacity="0.02"/>
</g>
<path d="M1916 485L1490.46 265.232C1486.53 263.203 1481.87 263.19 1477.93 265.197L1046.5 485L1484.2 700.5L1916 485Z" stroke="url(#paint1_linear_477_3435)"/>
</g>
<g style="mix-blend-mode:overlay" filter="url(#filter2_i_477_3435)">
<path d="M1789 301L1916 367" stroke="url(#paint2_linear_477_3435)"/>
</g>
<g style="mix-blend-mode:overlay">
<g filter="url(#filter3_i_477_3435)">
<path d="M1912.5 109.5L1495.27 -101.924C1491.45 -103.862 1486.94 -103.903 1483.08 -102.033L1046.5 109.5L1475.5 325L1912.5 109.5Z" fill="white" fill-opacity="0.02"/>
</g>
<path d="M1912.5 109.5L1495.27 -101.924C1491.45 -103.862 1486.94 -103.903 1483.08 -102.033L1046.5 109.5L1475.5 325L1912.5 109.5Z" stroke="url(#paint3_linear_477_3435)"/>
</g>
<g style="mix-blend-mode:overlay">
<g filter="url(#filter4_i_477_3435)">
<path d="M1829.5 653L1420.39 445.982C1416.67 444.097 1412.29 444.009 1408.49 445.743L1046.5 611L1484.2 824L1829.5 653Z" fill="white" fill-opacity="0.32"/>
</g>
<path d="M1829.5 653L1420.39 445.982C1416.67 444.097 1412.29 444.009 1408.49 445.743L1046.5 611L1484.2 824L1829.5 653Z" stroke="url(#paint4_linear_477_3435)"/>
</g>
<mask id="mask0_477_3435" style="mask-type:alpha" maskUnits="userSpaceOnUse" x="1046" y="-104" width="875" height="1048">
<path d="M1912.69 105.655L1490.25 -102.027C1486.44 -103.902 1481.97 -103.905 1478.15 -102.034L1046 109.741V484.841L1484.2 700.976L1833.92 525.279V650.777L1484.2 825.08L1046 611.733V722.775C1046 726.5 1048.13 729.897 1051.48 731.524L1485.12 942.037C1488.97 943.905 1493.47 943.873 1497.29 941.952L1921 728.865V375.26C1921 368.526 1913.97 364.097 1907.9 367.002L1576.9 525.279V406.753L1921 233.845V119.003C1921 113.333 1917.78 108.156 1912.69 105.655Z" fill="url(#paint5_linear_477_3435)"/>
</mask>
<g mask="url(#mask0_477_3435)">
<g filter="url(#filter5_f_477_3435)">
<ellipse cx="1135.5" cy="195" rx="136.5" ry="173.531" transform="rotate(32.5704 1135.5 195)" fill="url(#paint6_linear_477_3435)"/>
</g>
<g filter="url(#filter6_f_477_3435)">
<g style="mix-blend-mode:screen" filter="url(#filter7_f_477_3435)">
<ellipse cx="1065.16" cy="332.255" rx="153.811" ry="100.017" fill="#6B5DF7"/>
</g>
<g style="mix-blend-mode:screen" filter="url(#filter8_f_477_3435)">
<path d="M1528.4 124.825C1595.71 192.131 1492.37 256.95 1388.66 360.665C1284.94 464.38 1220.12 567.717 1152.82 500.411C1085.51 433.105 1115.03 294.465 1218.74 190.75C1322.46 87.0349 1461.1 57.5193 1528.4 124.825Z" fill="#5FAEF7"/>
</g>
<g style="mix-blend-mode:screen" filter="url(#filter9_f_477_3435)">
<path d="M1356.85 204.296C1356.85 259.534 1287.99 243.728 1203.04 243.728C1118.09 243.728 1049.23 259.534 1049.23 204.296C1049.23 149.058 1118.09 104.279 1203.04 104.279C1287.99 104.279 1356.85 149.058 1356.85 204.296Z" fill="white"/>
</g>
<g style="mix-blend-mode:multiply">
<g style="mix-blend-mode:plus-lighter" filter="url(#filter10_f_477_3435)">
<ellipse cx="1065.16" cy="332.255" rx="153.811" ry="100.017" fill="#6B5DF7"/>
</g>
<g style="mix-blend-mode:plus-lighter" filter="url(#filter11_f_477_3435)">
<path d="M1528.4 124.825C1595.71 192.131 1492.37 256.95 1388.66 360.665C1284.94 464.38 1220.12 567.717 1152.82 500.411C1085.51 433.105 1115.03 294.465 1218.74 190.75C1322.46 87.0349 1461.1 57.5193 1528.4 124.825Z" fill="#5FAEF7"/>
</g>
<g style="mix-blend-mode:plus-lighter" filter="url(#filter12_f_477_3435)">
<path d="M1356.85 204.296C1356.85 259.534 1287.99 243.728 1203.04 243.728C1118.09 243.728 1049.23 259.534 1049.23 204.296C1049.23 149.058 1118.09 104.279 1203.04 104.279C1287.99 104.279 1356.85 149.058 1356.85 204.296Z" fill="white"/>
</g>
</g>
</g>
</g>
<line x1="8" y1="167.13" x2="1045" y2="167.13" stroke="url(#paint7_linear_477_3435)" stroke-width="2"/>
<g style="mix-blend-mode:screen" opacity="0.4" filter="url(#filter13_f_477_3435)">
<line x1="45.3086" y1="163.87" x2="1045" y2="163.87" stroke="url(#paint8_linear_477_3435)" stroke-width="20"/>
</g>
<g filter="url(#filter14_f_477_3435)">
<ellipse cx="693" cy="178.5" rx="84" ry="25.5" fill="#6B5DF7"/>
</g>
<g filter="url(#filter15_f_477_3435)">
<ellipse cx="827" cy="178.5" rx="139" ry="25.5" fill="#5FAEF7"/>
</g>
<rect x="599.5" y="147.5" width="371" height="193" rx="8.5" stroke="white" stroke-opacity="0.05"/>
<rect x="599.5" y="147.5" width="371" height="193" rx="8.5" stroke="url(#paint9_radial_477_3435)"/>
<rect x="599.5" y="147.5" width="371" height="193" rx="8.5" stroke="url(#paint10_radial_477_3435)"/>
<mask id="path-19-inside-1_477_3435" fill="white">
<path d="M600 156C600 151.582 603.582 148 608 148H962C966.418 148 970 151.582 970 156V182H600V156Z"/>
</mask>
<path d="M600 156C600 151.582 603.582 148 608 148H962C966.418 148 970 151.582 970 156V182H600V156Z" fill="#131316" fill-opacity="0.8"/>
<path d="M600 148H970H600ZM970 183H600V181H970V183ZM600 182V148V182ZM970 148V182V148Z" fill="white" fill-opacity="0.1" mask="url(#path-19-inside-1_477_3435)"/>
<path opacity="0.5" d="M612.96 170.8V162.64H613.896L613.908 163.66C614.1 163.284 614.364 162.996 614.7 162.796C615.044 162.596 615.432 162.496 615.864 162.496C616.496 162.496 617.012 162.652 617.412 162.964C617.82 163.276 618.12 163.684 618.312 164.188C618.504 164.692 618.6 165.236 618.6 165.82C618.6 166.404 618.504 166.948 618.312 167.452C618.12 167.956 617.82 168.364 617.412 168.676C617.012 168.988 616.496 169.144 615.864 169.144C615.448 169.144 615.068 169.056 614.724 168.88C614.388 168.704 614.136 168.464 613.968 168.16V170.8H612.96ZM615.768 168.184C616.32 168.184 616.752 167.976 617.064 167.56C617.384 167.144 617.544 166.564 617.544 165.82C617.544 165.076 617.384 164.496 617.064 164.08C616.752 163.664 616.32 163.456 615.768 163.456C615.216 163.456 614.776 163.656 614.448 164.056C614.128 164.448 613.968 165.036 613.968 165.82C613.968 166.596 614.128 167.184 614.448 167.584C614.768 167.984 615.208 168.184 615.768 168.184ZM621.955 169.144C621.555 169.144 621.195 169.072 620.875 168.928C620.555 168.784 620.303 168.584 620.119 168.328C619.935 168.064 619.843 167.76 619.843 167.416C619.843 166.872 620.003 166.452 620.323 166.156C620.651 165.852 621.163 165.632 621.859 165.496L623.995 165.064C623.995 164.52 623.871 164.116 623.623 163.852C623.383 163.588 623.035 163.456 622.579 163.456C622.139 163.456 621.795 163.556 621.547 163.756C621.299 163.948 621.127 164.228 621.031 164.596L619.963 164.512C620.083 163.912 620.367 163.428 620.815 163.06C621.271 162.684 621.859 162.496 622.579 162.496C623.347 162.496 623.943 162.728 624.367 163.192C624.791 163.648 625.003 164.28 625.003 165.088V167.728C625.003 167.872 625.035 167.972 625.099 168.028C625.163 168.084 625.259 168.112 625.387 168.112H625.795V169C625.667 169.016 625.491 169.024 625.267 169.024C624.915 169.024 624.635 168.952 624.427 168.808C624.227 168.664 624.095 168.428 624.031 168.1C623.863 168.412 623.587 168.664 623.203 168.856C622.827 169.048 622.411 169.144 621.955 169.144ZM622.051 168.256C622.699 168.256 623.183 168.092 623.503 167.764C623.831 167.436 623.995 167.008 623.995 166.48V165.928L622.051 166.312C621.619 166.392 621.319 166.516 621.151 166.684C620.983 166.844 620.899 167.056 620.899 167.32C620.899 167.616 620.999 167.848 621.199 168.016C621.407 168.176 621.691 168.256 622.051 168.256ZM629.955 170.944C629.275 170.944 628.695 170.776 628.215 170.44C627.735 170.104 627.427 169.656 627.291 169.096L628.347 169.024C628.443 169.32 628.611 169.552 628.851 169.72C629.099 169.896 629.467 169.984 629.955 169.984C630.531 169.984 630.971 169.868 631.275 169.636C631.587 169.404 631.743 169.056 631.743 168.592V167.56C631.591 167.896 631.347 168.164 631.011 168.364C630.675 168.564 630.299 168.664 629.883 168.664C629.347 168.664 628.867 168.532 628.443 168.268C628.027 168.004 627.699 167.64 627.459 167.176C627.227 166.712 627.111 166.18 627.111 165.58C627.111 164.972 627.227 164.44 627.459 163.984C627.691 163.52 628.011 163.156 628.419 162.892C628.835 162.628 629.307 162.496 629.835 162.496C630.283 162.496 630.683 162.6 631.035 162.808C631.395 163.016 631.647 163.296 631.791 163.648V162.64H632.751V168.568C632.751 169.312 632.503 169.892 632.007 170.308C631.519 170.732 630.835 170.944 629.955 170.944ZM629.931 167.704C630.475 167.704 630.911 167.516 631.239 167.14C631.567 166.756 631.735 166.236 631.743 165.58C631.759 164.924 631.599 164.408 631.263 164.032C630.927 163.648 630.483 163.456 629.931 163.456C629.371 163.456 628.935 163.648 628.623 164.032C628.319 164.408 628.167 164.924 628.167 165.58C628.167 166.236 628.323 166.756 628.635 167.14C628.955 167.516 629.387 167.704 629.931 167.704ZM637.294 169.144C636.694 169.144 636.174 169.008 635.734 168.736C635.302 168.464 634.966 168.08 634.726 167.584C634.494 167.08 634.378 166.492 634.378 165.82C634.378 165.148 634.494 164.564 634.726 164.068C634.966 163.572 635.298 163.188 635.722 162.916C636.154 162.636 636.662 162.496 637.246 162.496C637.798 162.496 638.286 162.628 638.71 162.892C639.134 163.148 639.466 163.524 639.706 164.02C639.946 164.516 640.066 165.12 640.066 165.832V166.132H635.434C635.474 166.812 635.654 167.324 635.974 167.668C636.302 168.012 636.742 168.184 637.294 168.184C637.71 168.184 638.05 168.088 638.314 167.896C638.586 167.696 638.774 167.436 638.878 167.116L639.958 167.2C639.79 167.768 639.47 168.236 638.998 168.604C638.534 168.964 637.966 169.144 637.294 169.144ZM635.434 165.244H638.962C638.914 164.628 638.734 164.176 638.422 163.888C638.11 163.6 637.718 163.456 637.246 163.456C636.758 163.456 636.354 163.608 636.034 163.912C635.722 164.208 635.522 164.652 635.434 165.244ZM643.637 169V167.536H645.125V169H643.637ZM652.513 169C651.289 169 650.677 168.416 650.677 167.248V163.528H648.577V162.64H650.677V161.152H651.685V162.64H654.217V163.528H651.685V167.248C651.685 167.824 651.961 168.112 652.513 168.112H654.217V169H652.513ZM658.892 169.144C658.34 169.144 657.864 169.048 657.464 168.856C657.064 168.664 656.748 168.408 656.516 168.088C656.292 167.76 656.164 167.396 656.132 166.996L657.188 166.924C657.252 167.316 657.424 167.624 657.704 167.848C657.992 168.072 658.388 168.184 658.892 168.184C659.364 168.184 659.728 168.116 659.984 167.98C660.248 167.844 660.38 167.632 660.38 167.344C660.38 167.16 660.336 167.008 660.248 166.888C660.16 166.768 659.996 166.668 659.756 166.588C659.516 166.5 659.164 166.416 658.7 166.336C658.084 166.224 657.6 166.088 657.248 165.928C656.904 165.76 656.66 165.552 656.516 165.304C656.372 165.056 656.3 164.76 656.3 164.416C656.3 163.864 656.508 163.408 656.924 163.048C657.34 162.68 657.936 162.496 658.712 162.496C659.24 162.496 659.68 162.592 660.032 162.784C660.392 162.968 660.676 163.216 660.884 163.528C661.092 163.832 661.228 164.168 661.292 164.536L660.236 164.608C660.164 164.272 659.996 163.996 659.732 163.78C659.476 163.564 659.132 163.456 658.7 163.456C658.236 163.456 657.892 163.548 657.668 163.732C657.444 163.916 657.332 164.144 657.332 164.416C657.332 164.736 657.452 164.964 657.692 165.1C657.932 165.236 658.34 165.352 658.916 165.448C659.572 165.552 660.08 165.688 660.44 165.856C660.8 166.016 661.052 166.216 661.196 166.456C661.34 166.696 661.412 166.992 661.412 167.344C661.412 167.72 661.3 168.044 661.076 168.316C660.86 168.58 660.56 168.784 660.176 168.928C659.8 169.072 659.372 169.144 658.892 169.144ZM663.015 169L665.355 165.736L663.135 162.64H664.311L665.979 165.04L667.611 162.64H668.811L666.603 165.76L668.919 169H667.743L665.979 166.432L664.215 169H663.015Z" fill="white"/>
<path d="M600 182H970V332C970 336.418 966.418 340 962 340H608C603.582 340 600 336.418 600 332V182Z" fill="#131316" fill-opacity="0.8"/>
<path d="M620.72 211V209.992H623.408V204.688H621.176V203.8H622.328C622.784 203.8 623.108 203.7 623.3 203.5C623.5 203.3 623.6 202.96 623.6 202.48H624.44V209.992H626.48V211H620.72ZM620.6 229C620.6 228.4 620.692 227.86 620.876 227.38C621.068 226.892 621.4 226.428 621.872 225.988C622.352 225.548 623.016 225.104 623.864 224.656C624.256 224.448 624.572 224.256 624.812 224.08C625.052 223.904 625.228 223.716 625.34 223.516C625.452 223.316 625.508 223.072 625.508 222.784C625.508 222.344 625.364 221.988 625.076 221.716C624.796 221.436 624.372 221.296 623.804 221.296C623.204 221.296 622.728 221.452 622.376 221.764C622.032 222.076 621.816 222.52 621.728 223.096L620.648 223.024C620.744 222.192 621.064 221.528 621.608 221.032C622.152 220.536 622.884 220.288 623.804 220.288C624.684 220.288 625.368 220.516 625.856 220.972C626.344 221.428 626.588 222.024 626.588 222.76C626.588 223.192 626.516 223.568 626.372 223.888C626.228 224.2 625.984 224.492 625.64 224.764C625.304 225.036 624.84 225.328 624.248 225.64C623.48 226.048 622.896 226.46 622.496 226.876C622.104 227.292 621.896 227.664 621.872 227.992H626.6V229H620.6ZM623.528 247.192C622.608 247.192 621.9 246.972 621.404 246.532C620.908 246.084 620.64 245.508 620.6 244.804L621.668 244.732C621.716 245.252 621.908 245.624 622.244 245.848C622.588 246.072 623.016 246.184 623.528 246.184C623.872 246.184 624.196 246.136 624.5 246.04C624.804 245.936 625.048 245.772 625.232 245.548C625.424 245.316 625.52 245.008 625.52 244.624C625.52 244.056 625.336 243.64 624.968 243.376C624.6 243.112 624.14 242.98 623.588 242.98H622.916V241.972H623.588C623.884 241.972 624.156 241.928 624.404 241.84C624.652 241.752 624.848 241.612 624.992 241.42C625.144 241.22 625.22 240.96 625.22 240.64C625.22 240.2 625.08 239.868 624.8 239.644C624.52 239.412 624.116 239.296 623.588 239.296C623.052 239.296 622.644 239.404 622.364 239.62C622.092 239.836 621.928 240.132 621.872 240.508L620.792 240.436C620.872 239.796 621.152 239.28 621.632 238.888C622.112 238.488 622.764 238.288 623.588 238.288C624.42 238.288 625.08 238.496 625.568 238.912C626.056 239.32 626.3 239.88 626.3 240.592C626.3 241.504 625.808 242.112 624.824 242.416C625.376 242.568 625.808 242.84 626.12 243.232C626.44 243.616 626.6 244.08 626.6 244.624C626.6 245.168 626.468 245.632 626.204 246.016C625.94 246.4 625.576 246.692 625.112 246.892C624.648 247.092 624.12 247.192 623.528 247.192ZM624.656 265V263.152H620.48V262.216L624.584 256.48H625.688V262.144H626.72V263.152H625.688V265H624.656ZM621.536 262.144H624.656V257.92L621.536 262.144ZM623.576 283.192C623.024 283.192 622.54 283.092 622.124 282.892C621.716 282.692 621.388 282.412 621.14 282.052C620.9 281.692 620.76 281.276 620.72 280.804L621.8 280.732C621.864 281.212 622.052 281.576 622.364 281.824C622.684 282.064 623.088 282.184 623.576 282.184C624.128 282.184 624.568 282.016 624.896 281.68C625.232 281.336 625.4 280.864 625.4 280.264C625.4 279.664 625.24 279.192 624.92 278.848C624.608 278.496 624.168 278.32 623.6 278.32C623.264 278.32 622.94 278.404 622.628 278.572C622.324 278.732 622.104 278.964 621.968 279.268H620.864L621.428 274.48H625.964V275.488H622.376L622.064 278.056C622.272 277.816 622.528 277.636 622.832 277.516C623.136 277.396 623.44 277.336 623.744 277.336C624.288 277.336 624.764 277.464 625.172 277.72C625.588 277.968 625.908 278.312 626.132 278.752C626.364 279.192 626.48 279.696 626.48 280.264C626.48 280.832 626.356 281.34 626.108 281.788C625.86 282.228 625.516 282.572 625.076 282.82C624.644 283.068 624.144 283.192 623.576 283.192ZM623.624 301.192C622.664 301.192 621.92 300.864 621.392 300.208C620.864 299.552 620.6 298.616 620.6 297.4C620.6 296.696 620.656 296.036 620.768 295.42C620.888 294.804 621.076 294.264 621.332 293.8C621.596 293.328 621.94 292.96 622.364 292.696C622.796 292.424 623.328 292.288 623.96 292.288C624.72 292.288 625.308 292.476 625.724 292.852C626.14 293.22 626.432 293.704 626.6 294.304L625.52 294.4C625.424 294.064 625.256 293.796 625.016 293.596C624.784 293.396 624.432 293.296 623.96 293.296C623.312 293.296 622.788 293.552 622.388 294.064C621.996 294.568 621.76 295.332 621.68 296.356C621.888 296.044 622.172 295.784 622.532 295.576C622.9 295.368 623.328 295.264 623.816 295.264C624.376 295.264 624.864 295.384 625.28 295.624C625.696 295.864 626.02 296.204 626.252 296.644C626.484 297.076 626.6 297.584 626.6 298.168C626.6 298.792 626.472 299.332 626.216 299.788C625.968 300.236 625.62 300.584 625.172 300.832C624.732 301.072 624.216 301.192 623.624 301.192ZM623.648 300.184C624.208 300.184 624.66 300.008 625.004 299.656C625.348 299.296 625.52 298.8 625.52 298.168C625.52 297.576 625.356 297.108 625.028 296.764C624.708 296.42 624.28 296.248 623.744 296.248C623.36 296.248 623.016 296.328 622.712 296.488C622.408 296.64 622.168 296.86 621.992 297.148C621.816 297.436 621.728 297.776 621.728 298.168C621.728 298.752 621.9 299.236 622.244 299.62C622.596 299.996 623.064 300.184 623.648 300.184ZM622.304 319C622.304 318.12 622.424 317.244 622.664 316.372C622.912 315.492 623.264 314.64 623.72 313.816C624.176 312.992 624.72 312.216 625.352 311.488H620.72V310.48H626.48V311.416C625.768 312.232 625.184 313.04 624.728 313.84C624.272 314.632 623.936 315.452 623.72 316.3C623.512 317.14 623.408 318.04 623.408 319H622.304Z" fill="white"/>
<path d="M640.96 211V210.112H643.516V205.528H641.08V204.64H644.524V210.112H646.72V211H640.96ZM643.42 203.644V202.468H644.476V203.644H643.42ZM647.675 211V204.64H648.599L648.623 205.576C648.735 205.24 648.895 204.976 649.103 204.784C649.319 204.592 649.579 204.496 649.883 204.496C650.531 204.496 650.931 204.916 651.083 205.756C651.187 205.364 651.355 205.056 651.587 204.832C651.827 204.608 652.115 204.496 652.451 204.496C652.963 204.496 653.335 204.672 653.567 205.024C653.799 205.376 653.915 205.96 653.915 206.776V211H652.907V206.92C652.907 206.352 652.847 205.956 652.727 205.732C652.607 205.5 652.419 205.384 652.163 205.384C651.915 205.384 651.707 205.508 651.539 205.756C651.379 206.004 651.299 206.4 651.299 206.944V211H650.291V206.92C650.291 206.376 650.231 205.984 650.111 205.744C649.999 205.504 649.811 205.384 649.547 205.384C649.299 205.384 649.091 205.508 648.923 205.756C648.763 206.004 648.683 206.4 648.683 206.944V211H647.675ZM655.351 212.8V204.64H656.287L656.299 205.66C656.491 205.284 656.755 204.996 657.091 204.796C657.435 204.596 657.823 204.496 658.255 204.496C658.887 204.496 659.403 204.652 659.803 204.964C660.211 205.276 660.511 205.684 660.703 206.188C660.895 206.692 660.991 207.236 660.991 207.82C660.991 208.404 660.895 208.948 660.703 209.452C660.511 209.956 660.211 210.364 659.803 210.676C659.403 210.988 658.887 211.144 658.255 211.144C657.839 211.144 657.459 211.056 657.115 210.88C656.779 210.704 656.527 210.464 656.359 210.16V212.8H655.351ZM658.159 210.184C658.711 210.184 659.143 209.976 659.455 209.56C659.775 209.144 659.935 208.564 659.935 207.82C659.935 207.076 659.775 206.496 659.455 206.08C659.143 205.664 658.711 205.456 658.159 205.456C657.607 205.456 657.167 205.656 656.839 206.056C656.519 206.448 656.359 207.036 656.359 207.82C656.359 208.596 656.519 209.184 656.839 209.584C657.159 209.984 657.599 210.184 658.159 210.184ZM665.186 211.144C664.602 211.144 664.09 211.008 663.65 210.736C663.218 210.464 662.882 210.08 662.642 209.584C662.402 209.08 662.282 208.492 662.282 207.82C662.282 207.14 662.402 206.552 662.642 206.056C662.882 205.56 663.218 205.176 663.65 204.904C664.09 204.632 664.602 204.496 665.186 204.496C665.77 204.496 666.278 204.632 666.71 204.904C667.15 205.176 667.49 205.56 667.73 206.056C667.97 206.552 668.09 207.14 668.09 207.82C668.09 208.492 667.97 209.08 667.73 209.584C667.49 210.08 667.15 210.464 666.71 210.736C666.278 211.008 665.77 211.144 665.186 211.144ZM665.186 210.184C665.77 210.184 666.222 209.976 666.542 209.56C666.87 209.136 667.034 208.556 667.034 207.82C667.034 207.084 666.87 206.508 666.542 206.092C666.222 205.668 665.77 205.456 665.186 205.456C664.602 205.456 664.146 205.668 663.818 206.092C663.498 206.508 663.338 207.084 663.338 207.82C663.338 208.556 663.498 209.136 663.818 209.56C664.146 209.976 664.602 210.184 665.186 210.184ZM669.861 211V210.112H671.517V205.528H669.861V204.64H672.357L672.429 205.864C672.645 205.048 673.153 204.64 673.953 204.64H675.261V205.552H673.965C673.501 205.552 673.145 205.692 672.897 205.972C672.649 206.244 672.525 206.64 672.525 207.16V210.112H674.541V211H669.861ZM680.513 211C679.289 211 678.677 210.416 678.677 209.248V205.528H676.577V204.64H678.677V203.152H679.685V204.64H682.217V205.528H679.685V209.248C679.685 209.824 679.961 210.112 680.513 210.112H682.217V211H680.513ZM772.06 211V205.528H770.356V204.64H772.06V204.232C772.06 203.664 772.204 203.232 772.492 202.936C772.788 202.632 773.236 202.48 773.836 202.48H775.876V203.368H773.836C773.588 203.368 773.396 203.448 773.26 203.608C773.132 203.76 773.068 203.968 773.068 204.232V204.64H775.756V205.528H773.068V211H772.06ZM777.791 211V210.112H779.447V205.528H777.791V204.64H780.287L780.359 205.864C780.575 205.048 781.083 204.64 781.883 204.64H783.191V205.552H781.895C781.431 205.552 781.075 205.692 780.827 205.972C780.579 206.244 780.455 206.64 780.455 207.16V210.112H782.471V211H777.791ZM787.506 211.144C786.922 211.144 786.41 211.008 785.97 210.736C785.538 210.464 785.202 210.08 784.962 209.584C784.722 209.08 784.602 208.492 784.602 207.82C784.602 207.14 784.722 206.552 784.962 206.056C785.202 205.56 785.538 205.176 785.97 204.904C786.41 204.632 786.922 204.496 787.506 204.496C788.09 204.496 788.598 204.632 789.03 204.904C789.47 205.176 789.81 205.56 790.05 206.056C790.29 206.552 790.41 207.14 790.41 207.82C790.41 208.492 790.29 209.08 790.05 209.584C789.81 210.08 789.47 210.464 789.03 210.736C788.598 211.008 788.09 211.144 787.506 211.144ZM787.506 210.184C788.09 210.184 788.542 209.976 788.862 209.56C789.19 209.136 789.354 208.556 789.354 207.82C789.354 207.084 789.19 206.508 788.862 206.092C788.542 205.668 788.09 205.456 787.506 205.456C786.922 205.456 786.466 205.668 786.138 206.092C785.818 206.508 785.658 207.084 785.658 207.82C785.658 208.556 785.818 209.136 786.138 209.56C786.466 209.976 786.922 210.184 787.506 210.184ZM791.582 211V204.64H792.506L792.53 205.576C792.642 205.24 792.802 204.976 793.01 204.784C793.226 204.592 793.486 204.496 793.79 204.496C794.438 204.496 794.838 204.916 794.99 205.756C795.094 205.364 795.262 205.056 795.494 204.832C795.734 204.608 796.022 204.496 796.358 204.496C796.87 204.496 797.242 204.672 797.474 205.024C797.706 205.376 797.822 205.96 797.822 206.776V211H796.814V206.92C796.814 206.352 796.754 205.956 796.634 205.732C796.514 205.5 796.326 205.384 796.07 205.384C795.822 205.384 795.614 205.508 795.446 205.756C795.286 206.004 795.206 206.4 795.206 206.944V211H794.198V206.92C794.198 206.376 794.138 205.984 794.018 205.744C793.906 205.504 793.718 205.384 793.454 205.384C793.206 205.384 792.998 205.508 792.83 205.756C792.67 206.004 792.59 206.4 792.59 206.944V211H791.582ZM643.708 247.144C643.108 247.144 642.588 247.008 642.148 246.736C641.716 246.464 641.38 246.08 641.14 245.584C640.908 245.08 640.792 244.492 640.792 243.82C640.792 243.148 640.908 242.564 641.14 242.068C641.38 241.572 641.712 241.188 642.136 240.916C642.568 240.636 643.076 240.496 643.66 240.496C644.212 240.496 644.7 240.628 645.124 240.892C645.548 241.148 645.88 241.524 646.12 242.02C646.36 242.516 646.48 243.12 646.48 243.832V244.132H641.848C641.888 244.812 642.068 245.324 642.388 245.668C642.716 246.012 643.156 246.184 643.708 246.184C644.124 246.184 644.464 246.088 644.728 245.896C645 245.696 645.188 245.436 645.292 245.116L646.372 245.2C646.204 245.768 645.884 246.236 645.412 246.604C644.948 246.964 644.38 247.144 643.708 247.144ZM641.848 243.244H645.376C645.328 242.628 645.148 242.176 644.836 241.888C644.524 241.6 644.132 241.456 643.66 241.456C643.172 241.456 642.768 241.608 642.448 241.912C642.136 242.208 641.936 242.652 641.848 243.244ZM647.843 247L650.183 243.736L647.963 240.64H649.139L650.807 243.04L652.439 240.64H653.639L651.431 243.76L653.747 247H652.571L650.807 244.432L649.043 247H647.843ZM655.351 248.8V240.64H656.287L656.299 241.66C656.491 241.284 656.755 240.996 657.091 240.796C657.435 240.596 657.823 240.496 658.255 240.496C658.887 240.496 659.403 240.652 659.803 240.964C660.211 241.276 660.511 241.684 660.703 242.188C660.895 242.692 660.991 243.236 660.991 243.82C660.991 244.404 660.895 244.948 660.703 245.452C660.511 245.956 660.211 246.364 659.803 246.676C659.403 246.988 658.887 247.144 658.255 247.144C657.839 247.144 657.459 247.056 657.115 246.88C656.779 246.704 656.527 246.464 656.359 246.16V248.8H655.351ZM658.159 246.184C658.711 246.184 659.143 245.976 659.455 245.56C659.775 245.144 659.935 244.564 659.935 243.82C659.935 243.076 659.775 242.496 659.455 242.08C659.143 241.664 658.711 241.456 658.159 241.456C657.607 241.456 657.167 241.656 656.839 242.056C656.519 242.448 656.359 243.036 656.359 243.82C656.359 244.596 656.519 245.184 656.839 245.584C657.159 245.984 657.599 246.184 658.159 246.184ZM665.186 247.144C664.602 247.144 664.09 247.008 663.65 246.736C663.218 246.464 662.882 246.08 662.642 245.584C662.402 245.08 662.282 244.492 662.282 243.82C662.282 243.14 662.402 242.552 662.642 242.056C662.882 241.56 663.218 241.176 663.65 240.904C664.09 240.632 664.602 240.496 665.186 240.496C665.77 240.496 666.278 240.632 666.71 240.904C667.15 241.176 667.49 241.56 667.73 242.056C667.97 242.552 668.09 243.14 668.09 243.82C668.09 244.492 667.97 245.08 667.73 245.584C667.49 246.08 667.15 246.464 666.71 246.736C666.278 247.008 665.77 247.144 665.186 247.144ZM665.186 246.184C665.77 246.184 666.222 245.976 666.542 245.56C666.87 245.136 667.034 244.556 667.034 243.82C667.034 243.084 666.87 242.508 666.542 242.092C666.222 241.668 665.77 241.456 665.186 241.456C664.602 241.456 664.146 241.668 663.818 242.092C663.498 242.508 663.338 243.084 663.338 243.82C663.338 244.556 663.498 245.136 663.818 245.56C664.146 245.976 664.602 246.184 665.186 246.184ZM669.861 247V246.112H671.517V241.528H669.861V240.64H672.357L672.429 241.864C672.645 241.048 673.153 240.64 673.953 240.64H675.261V241.552H673.965C673.501 241.552 673.145 241.692 672.897 241.972C672.649 242.244 672.525 242.64 672.525 243.16V246.112H674.541V247H669.861ZM680.513 247C679.289 247 678.677 246.416 678.677 245.248V241.528H676.577V240.64H678.677V239.152H679.685V240.64H682.217V241.528H679.685V245.248C679.685 245.824 679.961 246.112 680.513 246.112H682.217V247H680.513ZM693.571 247.144C693.011 247.144 692.527 247.008 692.119 246.736C691.711 246.464 691.395 246.08 691.171 245.584C690.955 245.088 690.847 244.5 690.847 243.82C690.847 243.14 690.955 242.552 691.171 242.056C691.395 241.56 691.711 241.176 692.119 240.904C692.527 240.632 693.011 240.496 693.571 240.496C694.019 240.496 694.411 240.604 694.747 240.82C695.083 241.028 695.327 241.264 695.479 241.528V238.48H696.487V247H695.575L695.539 246.04C695.363 246.384 695.103 246.656 694.759 246.856C694.415 247.048 694.019 247.144 693.571 247.144ZM693.631 246.184C694.207 246.184 694.659 245.972 694.987 245.548C695.315 245.124 695.479 244.548 695.479 243.82C695.479 243.084 695.315 242.508 694.987 242.092C694.659 241.668 694.199 241.456 693.607 241.456C693.087 241.456 692.671 241.668 692.359 242.092C692.055 242.508 691.903 243.084 691.903 243.82C691.903 244.548 692.055 245.124 692.359 245.548C692.671 245.972 693.095 246.184 693.631 246.184ZM701.271 247.144C700.671 247.144 700.151 247.008 699.711 246.736C699.279 246.464 698.943 246.08 698.703 245.584C698.471 245.08 698.354 244.492 698.354 243.82C698.354 243.148 698.471 242.564 698.703 242.068C698.943 241.572 699.275 241.188 699.699 240.916C700.131 240.636 700.639 240.496 701.223 240.496C701.775 240.496 702.263 240.628 702.687 240.892C703.111 241.148 703.443 241.524 703.683 242.02C703.923 242.516 704.043 243.12 704.043 243.832V244.132H699.411C699.451 244.812 699.631 245.324 699.951 245.668C700.279 246.012 700.719 246.184 701.271 246.184C701.687 246.184 702.027 246.088 702.291 245.896C702.563 245.696 702.751 245.436 702.855 245.116L703.935 245.2C703.767 245.768 703.447 246.236 702.975 246.604C702.511 246.964 701.943 247.144 701.271 247.144ZM699.411 243.244H702.939C702.891 242.628 702.711 242.176 702.399 241.888C702.087 241.6 701.695 241.456 701.223 241.456C700.735 241.456 700.331 241.608 700.011 241.912C699.699 242.208 699.499 242.652 699.411 243.244ZM707.302 247V241.528H705.598V240.64H707.302V240.232C707.302 239.664 707.446 239.232 707.734 238.936C708.03 238.632 708.478 238.48 709.078 238.48H711.118V239.368H709.078C708.83 239.368 708.638 239.448 708.502 239.608C708.374 239.76 708.31 239.968 708.31 240.232V240.64H710.998V241.528H708.31V247H707.302ZM714.713 247.144C714.313 247.144 713.953 247.072 713.633 246.928C713.313 246.784 713.061 246.584 712.877 246.328C712.693 246.064 712.601 245.76 712.601 245.416C712.601 244.872 712.761 244.452 713.081 244.156C713.409 243.852 713.921 243.632 714.617 243.496L716.753 243.064C716.753 242.52 716.629 242.116 716.381 241.852C716.141 241.588 715.793 241.456 715.337 241.456C714.897 241.456 714.553 241.556 714.305 241.756C714.057 241.948 713.885 242.228 713.789 242.596L712.721 242.512C712.841 241.912 713.125 241.428 713.573 241.06C714.029 240.684 714.617 240.496 715.337 240.496C716.105 240.496 716.701 240.728 717.125 241.192C717.549 241.648 717.761 242.28 717.761 243.088V245.728C717.761 245.872 717.793 245.972 717.857 246.028C717.921 246.084 718.017 246.112 718.145 246.112H718.553V247C718.425 247.016 718.249 247.024 718.025 247.024C717.673 247.024 717.393 246.952 717.185 246.808C716.985 246.664 716.853 246.428 716.789 246.1C716.621 246.412 716.345 246.664 715.961 246.856C715.585 247.048 715.169 247.144 714.713 247.144ZM714.809 246.256C715.457 246.256 715.941 246.092 716.261 245.764C716.589 245.436 716.753 245.008 716.753 244.48V243.928L714.809 244.312C714.377 244.392 714.077 244.516 713.909 244.684C713.741 244.844 713.657 245.056 713.657 245.32C713.657 245.616 713.757 245.848 713.957 246.016C714.165 246.176 714.449 246.256 714.809 246.256ZM722.304 247.144C721.672 247.144 721.168 246.932 720.792 246.508C720.416 246.076 720.228 245.484 720.228 244.732V240.64H721.236V244.456C721.236 245.072 721.344 245.528 721.56 245.824C721.784 246.112 722.124 246.256 722.58 246.256C723.076 246.256 723.468 246.096 723.756 245.776C724.044 245.448 724.188 245 724.188 244.432V240.64H725.196V247H724.236V245.968C723.884 246.752 723.24 247.144 722.304 247.144ZM727.064 247V246.112H729.62V240.184C729.62 239.928 729.548 239.728 729.404 239.584C729.26 239.44 729.06 239.368 728.804 239.368H727.304V238.48H728.852C730.036 238.48 730.628 239.072 730.628 240.256V246.112H732.824V247H727.064ZM738.075 247C736.851 247 736.239 246.416 736.239 245.248V241.528H734.139V240.64H736.239V239.152H737.247V240.64H739.779V241.528H737.247V245.248C737.247 245.824 737.523 246.112 738.075 246.112H739.779V247H738.075ZM655.471 265V264.112H657.127V259.528H655.471V258.64H657.967L658.039 259.864C658.255 259.048 658.763 258.64 659.563 258.64H660.871V259.552H659.575C659.111 259.552 658.755 259.692 658.507 259.972C658.259 260.244 658.135 260.64 658.135 261.16V264.112H660.151V265H655.471ZM665.294 265.144C664.694 265.144 664.174 265.008 663.734 264.736C663.302 264.464 662.966 264.08 662.726 263.584C662.494 263.08 662.378 262.492 662.378 261.82C662.378 261.148 662.494 260.564 662.726 260.068C662.966 259.572 663.298 259.188 663.722 258.916C664.154 258.636 664.662 258.496 665.246 258.496C665.798 258.496 666.286 258.628 666.71 258.892C667.134 259.148 667.466 259.524 667.706 260.02C667.946 260.516 668.066 261.12 668.066 261.832V262.132H663.434C663.474 262.812 663.654 263.324 663.974 263.668C664.302 264.012 664.742 264.184 665.294 264.184C665.71 264.184 666.05 264.088 666.314 263.896C666.586 263.696 666.774 263.436 666.878 263.116L667.958 263.2C667.79 263.768 667.47 264.236 666.998 264.604C666.534 264.964 665.966 265.144 665.294 265.144ZM663.434 261.244H666.962C666.914 260.628 666.734 260.176 666.422 259.888C666.11 259.6 665.718 259.456 665.246 259.456C664.758 259.456 664.354 259.608 664.034 259.912C663.722 260.208 663.522 260.652 663.434 261.244ZM673.317 265C672.093 265 671.481 264.416 671.481 263.248V259.528H669.381V258.64H671.481V257.152H672.489V258.64H675.021V259.528H672.489V263.248C672.489 263.824 672.765 264.112 673.317 264.112H675.021V265H673.317ZM679.133 265.144C678.501 265.144 677.997 264.932 677.621 264.508C677.245 264.076 677.057 263.484 677.057 262.732V258.64H678.065V262.456C678.065 263.072 678.173 263.528 678.389 263.824C678.613 264.112 678.953 264.256 679.409 264.256C679.905 264.256 680.297 264.096 680.585 263.776C680.873 263.448 681.017 263 681.017 262.432V258.64H682.025V265H681.065V263.968C680.713 264.752 680.069 265.144 679.133 265.144ZM684.252 265V264.112H685.908V259.528H684.252V258.64H686.748L686.82 259.864C687.036 259.048 687.544 258.64 688.344 258.64H689.652V259.552H688.356C687.892 259.552 687.536 259.692 687.288 259.972C687.04 260.244 686.916 260.64 686.916 261.16V264.112H688.932V265H684.252ZM691.375 265V258.64H692.299L692.323 259.78C692.491 259.348 692.759 259.028 693.127 258.82C693.503 258.604 693.911 258.496 694.351 258.496C694.839 258.496 695.243 258.604 695.563 258.82C695.891 259.036 696.139 259.328 696.307 259.696C696.475 260.056 696.559 260.46 696.559 260.908V265H695.551V261.196C695.551 260.604 695.435 260.156 695.203 259.852C694.971 259.54 694.615 259.384 694.135 259.384C693.647 259.384 693.231 259.54 692.887 259.852C692.551 260.156 692.383 260.604 692.383 261.196V265H691.375Z" fill="#6B5DF7"/>
<path d="M695.275 212.38C694.643 212.38 694.143 212.188 693.775 211.804C693.415 211.42 693.235 210.924 693.235 210.316V209.32C693.235 208.8 693.127 208.4 692.911 208.12C692.703 207.832 692.399 207.688 691.999 207.688V206.692C692.399 206.692 692.703 206.548 692.911 206.26C693.127 205.972 693.235 205.572 693.235 205.06V204.064C693.235 203.456 693.415 202.96 693.775 202.576C694.143 202.192 694.643 202 695.275 202H695.935V202.936C695.303 202.912 694.855 202.984 694.591 203.152C694.327 203.32 694.195 203.616 694.195 204.04V205.144C694.195 205.744 694.063 206.212 693.799 206.548C693.535 206.876 693.219 207.084 692.851 207.172V207.184C693.227 207.264 693.543 207.476 693.799 207.82C694.063 208.164 694.195 208.636 694.195 209.236V210.34C694.195 210.756 694.327 211.048 694.591 211.216C694.855 211.384 695.303 211.46 695.935 211.444V212.38H695.275ZM708.49 211.192C707.89 211.192 707.358 211.068 706.894 210.82C706.43 210.572 706.058 210.232 705.778 209.8C705.498 209.36 705.334 208.852 705.286 208.276L706.366 208.204C706.454 208.836 706.682 209.324 707.05 209.668C707.426 210.012 707.914 210.184 708.514 210.184C709.106 210.184 709.558 210.072 709.87 209.848C710.19 209.624 710.35 209.304 710.35 208.888C710.35 208.616 710.286 208.38 710.158 208.18C710.038 207.972 709.806 207.78 709.462 207.604C709.126 207.428 708.626 207.248 707.962 207.064C707.37 206.896 706.89 206.712 706.522 206.512C706.162 206.312 705.898 206.068 705.73 205.78C705.57 205.492 705.49 205.136 705.49 204.712C705.49 204.232 705.602 203.812 705.826 203.452C706.058 203.084 706.386 202.8 706.81 202.6C707.234 202.392 707.738 202.288 708.322 202.288C708.906 202.288 709.406 202.408 709.822 202.648C710.238 202.88 710.566 203.2 710.806 203.608C711.054 204.016 711.21 204.48 711.274 205L710.194 205.072C710.122 204.552 709.93 204.128 709.618 203.8C709.314 203.464 708.874 203.296 708.298 203.296C707.77 203.296 707.35 203.424 707.038 203.68C706.726 203.928 706.57 204.256 706.57 204.664C706.57 204.928 706.626 205.148 706.738 205.324C706.858 205.492 707.066 205.644 707.362 205.78C707.658 205.908 708.074 206.048 708.61 206.2C709.306 206.392 709.858 206.608 710.266 206.848C710.682 207.088 710.978 207.376 711.154 207.712C711.338 208.04 711.43 208.44 711.43 208.912C711.43 209.36 711.306 209.756 711.058 210.1C710.81 210.444 710.466 210.712 710.026 210.904C709.586 211.096 709.074 211.192 708.49 211.192ZM712.913 211V210.112H715.469V205.528H713.033V204.64H716.477V210.112H718.673V211H712.913ZM715.373 203.644V202.468H716.429V203.644H715.373ZM722.712 212.944C722.032 212.944 721.452 212.776 720.972 212.44C720.492 212.104 720.184 211.656 720.048 211.096L721.104 211.024C721.2 211.32 721.368 211.552 721.608 211.72C721.856 211.896 722.224 211.984 722.712 211.984C723.288 211.984 723.728 211.868 724.032 211.636C724.344 211.404 724.5 211.056 724.5 210.592V209.56C724.348 209.896 724.104 210.164 723.768 210.364C723.432 210.564 723.056 210.664 722.64 210.664C722.104 210.664 721.624 210.532 721.2 210.268C720.784 210.004 720.456 209.64 720.216 209.176C719.984 208.712 719.868 208.18 719.868 207.58C719.868 206.972 719.984 206.44 720.216 205.984C720.448 205.52 720.768 205.156 721.176 204.892C721.592 204.628 722.064 204.496 722.592 204.496C723.04 204.496 723.44 204.6 723.792 204.808C724.152 205.016 724.404 205.296 724.548 205.648V204.64H725.508V210.568C725.508 211.312 725.26 211.892 724.764 212.308C724.276 212.732 723.592 212.944 722.712 212.944ZM722.688 209.704C723.232 209.704 723.668 209.516 723.996 209.14C724.324 208.756 724.492 208.236 724.5 207.58C724.516 206.924 724.356 206.408 724.02 206.032C723.684 205.648 723.24 205.456 722.688 205.456C722.128 205.456 721.692 205.648 721.38 206.032C721.076 206.408 720.924 206.924 720.924 207.58C720.924 208.236 721.08 208.756 721.392 209.14C721.712 209.516 722.144 209.704 722.688 209.704ZM727.352 211V204.64H728.276L728.3 205.78C728.468 205.348 728.736 205.028 729.104 204.82C729.48 204.604 729.888 204.496 730.328 204.496C730.816 204.496 731.22 204.604 731.54 204.82C731.868 205.036 732.116 205.328 732.284 205.696C732.452 206.056 732.536 206.46 732.536 206.908V211H731.528V207.196C731.528 206.604 731.412 206.156 731.18 205.852C730.948 205.54 730.592 205.384 730.112 205.384C729.624 205.384 729.208 205.54 728.864 205.852C728.528 206.156 728.36 206.604 728.36 207.196V211H727.352ZM734.499 211V209.992H736.623V203.488H734.499V202.48H739.779V203.488H737.655V209.992H739.779V211H734.499ZM741.742 211V204.64H742.666L742.69 205.78C742.858 205.348 743.126 205.028 743.494 204.82C743.87 204.604 744.278 204.496 744.718 204.496C745.206 204.496 745.61 204.604 745.93 204.82C746.258 205.036 746.506 205.328 746.674 205.696C746.842 206.056 746.926 206.46 746.926 206.908V211H745.918V207.196C745.918 206.604 745.802 206.156 745.57 205.852C745.338 205.54 744.982 205.384 744.502 205.384C744.014 205.384 743.598 205.54 743.254 205.852C742.918 206.156 742.75 206.604 742.75 207.196V211H741.742ZM757.417 212.38H756.757V211.444C757.397 211.46 757.845 211.384 758.101 211.216C758.365 211.048 758.497 210.756 758.497 210.34V209.236C758.497 208.636 758.625 208.164 758.881 207.82C759.145 207.476 759.465 207.264 759.841 207.184V207.172C759.473 207.084 759.157 206.876 758.893 206.548C758.629 206.212 758.497 205.744 758.497 205.144V204.04C758.497 203.616 758.365 203.32 758.101 203.152C757.845 202.984 757.397 202.912 756.757 202.936V202H757.417C758.057 202 758.557 202.192 758.917 202.576C759.277 202.96 759.457 203.456 759.457 204.064V205.06C759.457 205.572 759.565 205.972 759.781 206.26C759.997 206.548 760.301 206.692 760.693 206.692V207.688C760.301 207.688 759.997 207.832 759.781 208.12C759.565 208.4 759.457 208.8 759.457 209.32V210.316C759.457 210.924 759.277 211.42 758.917 211.804C758.557 212.188 758.057 212.38 757.417 212.38ZM945.059 206.368V204.904H946.547V206.368H945.059ZM945.167 212.872L945.731 211H945.083V209.536H946.523V210.832L945.767 212.872H945.167ZM845.453 248.32C844.341 246.648 843.785 244.928 843.785 243.16C843.785 241.384 844.341 239.664 845.453 238H846.353C845.337 239.728 844.829 241.448 844.829 243.16C844.829 244.016 844.957 244.876 845.213 245.74C845.469 246.596 845.849 247.456 846.353 248.32H845.453ZM851.88 248.32H850.98C851.484 247.456 851.864 246.596 852.12 245.74C852.376 244.876 852.504 244.016 852.504 243.16C852.504 241.448 851.996 239.728 850.98 238H851.88C852.992 239.664 853.548 241.384 853.548 243.16C853.548 244.928 852.992 246.648 851.88 248.32ZM867.963 248.38C867.331 248.38 866.831 248.188 866.463 247.804C866.103 247.42 865.923 246.924 865.923 246.316V245.32C865.923 244.8 865.815 244.4 865.599 244.12C865.391 243.832 865.087 243.688 864.687 243.688V242.692C865.087 242.692 865.391 242.548 865.599 242.26C865.815 241.972 865.923 241.572 865.923 241.06V240.064C865.923 239.456 866.103 238.96 866.463 238.576C866.831 238.192 867.331 238 867.963 238H868.623V238.936C867.991 238.912 867.543 238.984 867.279 239.152C867.015 239.32 866.883 239.616 866.883 240.04V241.144C866.883 241.744 866.751 242.212 866.487 242.548C866.223 242.876 865.907 243.084 865.539 243.172V243.184C865.915 243.264 866.231 243.476 866.487 243.82C866.751 244.164 866.883 244.636 866.883 245.236V246.34C866.883 246.756 867.015 247.048 867.279 247.216C867.543 247.384 867.991 247.46 868.623 247.444V248.38H867.963ZM708.742 266.32C707.63 264.648 707.074 262.928 707.074 261.16C707.074 259.384 707.63 257.664 708.742 256H709.642C708.626 257.728 708.118 259.448 708.118 261.16C708.118 262.016 708.246 262.876 708.502 263.74C708.758 264.596 709.138 265.456 709.642 266.32H708.742ZM675.117 282.604L669.645 280.168V278.896L675.117 276.46V277.492L670.545 279.532L675.117 281.572V282.604ZM727.64 284.32L731.288 274H732.248L728.6 284.32H727.64ZM734.403 282.604V281.572L738.975 279.532L734.403 277.492V276.46L739.875 278.896V280.168L734.403 282.604ZM657.607 302.32H656.707C657.211 301.456 657.591 300.596 657.847 299.74C658.103 298.876 658.231 298.016 658.231 297.16C658.231 295.448 657.723 293.728 656.707 292H657.607C658.719 293.664 659.275 295.384 659.275 297.16C659.275 298.928 658.719 300.648 657.607 302.32ZM664.442 296.368V294.904H665.93V296.368H664.442ZM664.55 302.872L665.114 301H664.466V299.536H665.906V300.832L665.15 302.872H664.55ZM642.292 320.38H641.632V319.444C642.272 319.46 642.72 319.384 642.976 319.216C643.24 319.048 643.372 318.756 643.372 318.34V317.236C643.372 316.636 643.5 316.164 643.756 315.82C644.02 315.476 644.34 315.264 644.716 315.184V315.172C644.348 315.084 644.032 314.876 643.768 314.548C643.504 314.212 643.372 313.744 643.372 313.144V312.04C643.372 311.616 643.24 311.32 642.976 311.152C642.72 310.984 642.272 310.912 641.632 310.936V310H642.292C642.932 310 643.432 310.192 643.792 310.576C644.152 310.96 644.332 311.456 644.332 312.064V313.06C644.332 313.572 644.44 313.972 644.656 314.26C644.872 314.548 645.176 314.692 645.568 314.692V315.688C645.176 315.688 644.872 315.832 644.656 316.12C644.44 316.4 644.332 316.8 644.332 317.32V318.316C644.332 318.924 644.152 319.42 643.792 319.804C643.432 320.188 642.932 320.38 642.292 320.38Z" fill="#F8F8F2"/>
<path d="M808.732 206.404L808.564 203.392V202.48H809.62V203.392L809.452 206.404H808.732ZM817.824 211.84C817.192 212.16 816.576 212.32 815.976 212.32C815.384 212.32 814.856 212.172 814.392 211.876C813.936 211.588 813.576 211.132 813.312 210.508C813.056 209.876 812.928 209.06 812.928 208.06C812.928 206.82 813.088 205.788 813.408 204.964C813.736 204.14 814.18 203.52 814.74 203.104C815.308 202.688 815.944 202.48 816.648 202.48C817.304 202.48 817.852 202.648 818.292 202.984C818.74 203.32 819.076 203.784 819.299 204.376C819.532 204.96 819.648 205.64 819.648 206.416C819.648 207.384 819.572 208.136 819.42 208.672C819.268 209.2 819.064 209.568 818.808 209.776C818.552 209.984 818.264 210.088 817.944 210.088C817.704 210.088 817.496 209.992 817.32 209.8C817.144 209.608 817.016 209.356 816.936 209.044C816.816 209.364 816.644 209.612 816.42 209.788C816.204 209.956 815.96 210.04 815.688 210.04C815.288 210.04 814.976 209.856 814.752 209.488C814.528 209.112 814.416 208.608 814.416 207.976C814.416 207.448 814.496 206.96 814.656 206.512C814.816 206.056 815.028 205.688 815.292 205.408C815.564 205.128 815.868 204.988 816.204 204.988C816.42 204.988 816.604 205.044 816.756 205.156C816.908 205.26 817.016 205.404 817.08 205.588L817.152 205H817.992C817.904 205.84 817.828 206.54 817.764 207.1C817.708 207.652 817.68 208.08 817.68 208.384C817.68 208.68 817.72 208.904 817.8 209.056C817.88 209.2 817.976 209.272 818.088 209.272C818.232 209.272 818.356 209.184 818.46 209.008C818.572 208.832 818.656 208.54 818.712 208.132C818.776 207.724 818.808 207.172 818.808 206.476C818.808 205.5 818.632 204.732 818.28 204.172C817.936 203.604 817.376 203.32 816.6 203.32C816.072 203.32 815.592 203.492 815.16 203.836C814.736 204.18 814.396 204.704 814.14 205.408C813.892 206.104 813.768 206.984 813.768 208.048C813.768 209.248 813.968 210.124 814.368 210.676C814.768 211.228 815.312 211.504 816 211.504C816.472 211.504 816.976 211.352 817.512 211.048L817.824 211.84ZM815.976 209.296C816.152 209.296 816.312 209.188 816.456 208.972C816.6 208.756 816.716 208.472 816.804 208.12C816.9 207.768 816.948 207.392 816.948 206.992C816.948 206.2 816.736 205.804 816.312 205.804C816.136 205.804 815.976 205.904 815.832 206.104C815.688 206.296 815.572 206.552 815.484 206.872C815.396 207.184 815.352 207.52 815.352 207.88C815.352 208.312 815.404 208.656 815.508 208.912C815.62 209.168 815.776 209.296 815.976 209.296ZM823.603 211.144C823.051 211.144 822.575 211.048 822.175 210.856C821.775 210.664 821.459 210.408 821.227 210.088C821.003 209.76 820.875 209.396 820.843 208.996L821.899 208.924C821.963 209.316 822.135 209.624 822.415 209.848C822.703 210.072 823.099 210.184 823.603 210.184C824.075 210.184 824.439 210.116 824.695 209.98C824.959 209.844 825.091 209.632 825.091 209.344C825.091 209.16 825.047 209.008 824.959 208.888C824.871 208.768 824.707 208.668 824.467 208.588C824.227 208.5 823.875 208.416 823.411 208.336C822.795 208.224 822.311 208.088 821.959 207.928C821.615 207.76 821.371 207.552 821.227 207.304C821.083 207.056 821.011 206.76 821.011 206.416C821.011 205.864 821.219 205.408 821.635 205.048C822.051 204.68 822.647 204.496 823.423 204.496C823.951 204.496 824.391 204.592 824.743 204.784C825.103 204.968 825.387 205.216 825.595 205.528C825.803 205.832 825.939 206.168 826.003 206.536L824.947 206.608C824.875 206.272 824.707 205.996 824.443 205.78C824.187 205.564 823.843 205.456 823.411 205.456C822.947 205.456 822.603 205.548 822.379 205.732C822.155 205.916 822.043 206.144 822.043 206.416C822.043 206.736 822.163 206.964 822.403 207.1C822.643 207.236 823.051 207.352 823.627 207.448C824.283 207.552 824.791 207.688 825.151 207.856C825.511 208.016 825.763 208.216 825.907 208.456C826.051 208.696 826.123 208.992 826.123 209.344C826.123 209.72 826.011 210.044 825.787 210.316C825.571 210.58 825.271 210.784 824.887 210.928C824.511 211.072 824.083 211.144 823.603 211.144ZM831.614 211C830.39 211 829.778 210.416 829.778 209.248V205.528H827.678V204.64H829.778V203.152H830.786V204.64H833.318V205.528H830.786V209.248C830.786 209.824 831.062 210.112 831.614 210.112H833.318V211H831.614ZM837.033 211.144C836.633 211.144 836.273 211.072 835.953 210.928C835.633 210.784 835.381 210.584 835.197 210.328C835.013 210.064 834.921 209.76 834.921 209.416C834.921 208.872 835.081 208.452 835.401 208.156C835.729 207.852 836.241 207.632 836.937 207.496L839.073 207.064C839.073 206.52 838.949 206.116 838.701 205.852C838.461 205.588 838.113 205.456 837.657 205.456C837.217 205.456 836.873 205.556 836.625 205.756C836.377 205.948 836.205 206.228 836.109 206.596L835.041 206.512C835.161 205.912 835.445 205.428 835.893 205.06C836.349 204.684 836.937 204.496 837.657 204.496C838.425 204.496 839.021 204.728 839.445 205.192C839.869 205.648 840.081 206.28 840.081 207.088V209.728C840.081 209.872 840.113 209.972 840.177 210.028C840.241 210.084 840.337 210.112 840.465 210.112H840.873V211C840.745 211.016 840.569 211.024 840.345 211.024C839.993 211.024 839.713 210.952 839.505 210.808C839.305 210.664 839.173 210.428 839.109 210.1C838.941 210.412 838.665 210.664 838.281 210.856C837.905 211.048 837.489 211.144 837.033 211.144ZM837.129 210.256C837.777 210.256 838.261 210.092 838.581 209.764C838.909 209.436 839.073 209.008 839.073 208.48V207.928L837.129 208.312C836.697 208.392 836.397 208.516 836.229 208.684C836.061 208.844 835.977 209.056 835.977 209.32C835.977 209.616 836.077 209.848 836.277 210.016C836.485 210.176 836.769 210.256 837.129 210.256ZM845.237 211.144C844.645 211.144 844.129 211.008 843.689 210.736C843.249 210.464 842.909 210.08 842.669 209.584C842.429 209.08 842.309 208.492 842.309 207.82C842.309 207.148 842.429 206.564 842.669 206.068C842.909 205.572 843.249 205.188 843.689 204.916C844.129 204.636 844.645 204.496 845.237 204.496C845.949 204.496 846.537 204.688 847.001 205.072C847.473 205.448 847.773 205.992 847.901 206.704L846.845 206.776C846.749 206.352 846.557 206.028 846.269 205.804C845.989 205.572 845.645 205.456 845.237 205.456C844.653 205.456 844.193 205.668 843.857 206.092C843.529 206.508 843.365 207.084 843.365 207.82C843.365 208.556 843.529 209.136 843.857 209.56C844.193 209.976 844.653 210.184 845.237 210.184C845.645 210.184 845.997 210.064 846.293 209.824C846.597 209.584 846.797 209.224 846.893 208.744L847.949 208.816C847.821 209.52 847.513 210.084 847.025 210.508C846.545 210.932 845.949 211.144 845.237 211.144ZM849.744 211V202.48H850.752V208.06L853.848 204.64H855.192L852.684 207.34L855.312 211H854.088L852 208.024L850.752 209.344V211H849.744ZM858.403 211V205.528H856.699V204.64H858.403V204.232C858.403 203.664 858.547 203.232 858.835 202.936C859.131 202.632 859.579 202.48 860.179 202.48H862.219V203.368H860.179C859.931 203.368 859.739 203.448 859.603 203.608C859.475 203.76 859.411 203.968 859.411 204.232V204.64H862.099V205.528H859.411V211H858.403ZM864.135 211V210.112H865.791V205.528H864.135V204.64H866.631L866.703 205.864C866.919 205.048 867.427 204.64 868.227 204.64H869.535V205.552H868.239C867.775 205.552 867.419 205.692 867.171 205.972C866.923 206.244 866.799 206.64 866.799 207.16V210.112H868.815V211H864.135ZM873.01 211.144C872.61 211.144 872.25 211.072 871.93 210.928C871.61 210.784 871.358 210.584 871.174 210.328C870.99 210.064 870.898 209.76 870.898 209.416C870.898 208.872 871.058 208.452 871.378 208.156C871.706 207.852 872.218 207.632 872.914 207.496L875.05 207.064C875.05 206.52 874.926 206.116 874.678 205.852C874.438 205.588 874.09 205.456 873.634 205.456C873.194 205.456 872.85 205.556 872.602 205.756C872.354 205.948 872.182 206.228 872.086 206.596L871.018 206.512C871.138 205.912 871.422 205.428 871.87 205.06C872.326 204.684 872.914 204.496 873.634 204.496C874.402 204.496 874.998 204.728 875.422 205.192C875.846 205.648 876.058 206.28 876.058 207.088V209.728C876.058 209.872 876.09 209.972 876.154 210.028C876.218 210.084 876.314 210.112 876.442 210.112H876.85V211C876.722 211.016 876.546 211.024 876.322 211.024C875.97 211.024 875.69 210.952 875.482 210.808C875.282 210.664 875.15 210.428 875.086 210.1C874.918 210.412 874.642 210.664 874.258 210.856C873.882 211.048 873.466 211.144 873.01 211.144ZM873.106 210.256C873.754 210.256 874.238 210.092 874.558 209.764C874.886 209.436 875.05 209.008 875.05 208.48V207.928L873.106 208.312C872.674 208.392 872.374 208.516 872.206 208.684C872.038 208.844 871.954 209.056 871.954 209.32C871.954 209.616 872.054 209.848 872.254 210.016C872.462 210.176 872.746 210.256 873.106 210.256ZM877.925 211V204.64H878.849L878.873 205.576C878.985 205.24 879.145 204.976 879.353 204.784C879.569 204.592 879.829 204.496 880.133 204.496C880.781 204.496 881.181 204.916 881.333 205.756C881.437 205.364 881.605 205.056 881.837 204.832C882.077 204.608 882.365 204.496 882.701 204.496C883.213 204.496 883.585 204.672 883.817 205.024C884.049 205.376 884.165 205.96 884.165 206.776V211H883.157V206.92C883.157 206.352 883.097 205.956 882.977 205.732C882.857 205.5 882.669 205.384 882.413 205.384C882.165 205.384 881.957 205.508 881.789 205.756C881.629 206.004 881.549 206.4 881.549 206.944V211H880.541V206.92C880.541 206.376 880.481 205.984 880.361 205.744C880.249 205.504 880.061 205.384 879.797 205.384C879.549 205.384 879.341 205.508 879.173 205.756C879.013 206.004 878.933 206.4 878.933 206.944V211H877.925ZM888.349 211.144C887.749 211.144 887.229 211.008 886.789 210.736C886.357 210.464 886.021 210.08 885.781 209.584C885.549 209.08 885.433 208.492 885.433 207.82C885.433 207.148 885.549 206.564 885.781 206.068C886.021 205.572 886.353 205.188 886.777 204.916C887.209 204.636 887.717 204.496 888.301 204.496C888.853 204.496 889.341 204.628 889.765 204.892C890.189 205.148 890.521 205.524 890.761 206.02C891.001 206.516 891.121 207.12 891.121 207.832V208.132H886.489C886.529 208.812 886.709 209.324 887.029 209.668C887.357 210.012 887.797 210.184 888.349 210.184C888.765 210.184 889.105 210.088 889.369 209.896C889.641 209.696 889.829 209.436 889.933 209.116L891.013 209.2C890.845 209.768 890.525 210.236 890.053 210.604C889.589 210.964 889.021 211.144 888.349 211.144ZM886.489 207.244H890.017C889.969 206.628 889.789 206.176 889.477 205.888C889.165 205.6 888.773 205.456 888.301 205.456C887.813 205.456 887.409 205.608 887.089 205.912C886.777 206.208 886.577 206.652 886.489 207.244ZM893.132 212.32L896.78 202H897.74L894.092 212.32H893.132ZM902.751 211.144C902.199 211.144 901.723 211.048 901.323 210.856C900.923 210.664 900.607 210.408 900.375 210.088C900.151 209.76 900.023 209.396 899.991 208.996L901.047 208.924C901.111 209.316 901.283 209.624 901.563 209.848C901.851 210.072 902.247 210.184 902.751 210.184C903.223 210.184 903.587 210.116 903.843 209.98C904.107 209.844 904.239 209.632 904.239 209.344C904.239 209.16 904.195 209.008 904.107 208.888C904.019 208.768 903.855 208.668 903.615 208.588C903.375 208.5 903.023 208.416 902.559 208.336C901.943 208.224 901.459 208.088 901.107 207.928C900.763 207.76 900.519 207.552 900.375 207.304C900.231 207.056 900.159 206.76 900.159 206.416C900.159 205.864 900.367 205.408 900.783 205.048C901.199 204.68 901.795 204.496 902.571 204.496C903.099 204.496 903.539 204.592 903.891 204.784C904.251 204.968 904.535 205.216 904.743 205.528C904.951 205.832 905.087 206.168 905.151 206.536L904.095 206.608C904.023 206.272 903.855 205.996 903.591 205.78C903.335 205.564 902.991 205.456 902.559 205.456C902.095 205.456 901.751 205.548 901.527 205.732C901.303 205.916 901.191 206.144 901.191 206.416C901.191 206.736 901.311 206.964 901.551 207.1C901.791 207.236 902.199 207.352 902.775 207.448C903.431 207.552 903.939 207.688 904.299 207.856C904.659 208.016 904.911 208.216 905.055 208.456C905.199 208.696 905.271 208.992 905.271 209.344C905.271 209.72 905.159 210.044 904.935 210.316C904.719 210.58 904.419 210.784 904.035 210.928C903.659 211.072 903.231 211.144 902.751 211.144ZM910.763 211C909.539 211 908.927 210.416 908.927 209.248V205.528H906.827V204.64H908.927V203.152H909.935V204.64H912.467V205.528H909.935V209.248C909.935 209.824 910.211 210.112 910.763 210.112H912.467V211H910.763ZM916.182 211.144C915.782 211.144 915.422 211.072 915.102 210.928C914.782 210.784 914.53 210.584 914.346 210.328C914.162 210.064 914.07 209.76 914.07 209.416C914.07 208.872 914.23 208.452 914.55 208.156C914.878 207.852 915.39 207.632 916.086 207.496L918.222 207.064C918.222 206.52 918.098 206.116 917.85 205.852C917.61 205.588 917.262 205.456 916.806 205.456C916.366 205.456 916.022 205.556 915.774 205.756C915.526 205.948 915.354 206.228 915.258 206.596L914.19 206.512C914.31 205.912 914.594 205.428 915.042 205.06C915.498 204.684 916.086 204.496 916.806 204.496C917.574 204.496 918.17 204.728 918.594 205.192C919.018 205.648 919.23 206.28 919.23 207.088V209.728C919.23 209.872 919.262 209.972 919.326 210.028C919.39 210.084 919.486 210.112 919.614 210.112H920.022V211C919.894 211.016 919.718 211.024 919.494 211.024C919.142 211.024 918.862 210.952 918.654 210.808C918.454 210.664 918.322 210.428 918.258 210.1C918.09 210.412 917.814 210.664 917.43 210.856C917.054 211.048 916.638 211.144 916.182 211.144ZM916.278 210.256C916.926 210.256 917.41 210.092 917.73 209.764C918.058 209.436 918.222 209.008 918.222 208.48V207.928L916.278 208.312C915.846 208.392 915.546 208.516 915.378 208.684C915.21 208.844 915.126 209.056 915.126 209.32C915.126 209.616 915.226 209.848 915.426 210.016C915.634 210.176 915.918 210.256 916.278 210.256ZM924.385 211.144C923.793 211.144 923.277 211.008 922.837 210.736C922.397 210.464 922.057 210.08 921.817 209.584C921.577 209.08 921.457 208.492 921.457 207.82C921.457 207.148 921.577 206.564 921.817 206.068C922.057 205.572 922.397 205.188 922.837 204.916C923.277 204.636 923.793 204.496 924.385 204.496C925.097 204.496 925.685 204.688 926.149 205.072C926.621 205.448 926.921 205.992 927.049 206.704L925.993 206.776C925.897 206.352 925.705 206.028 925.417 205.804C925.137 205.572 924.793 205.456 924.385 205.456C923.801 205.456 923.341 205.668 923.005 206.092C922.677 206.508 922.513 207.084 922.513 207.82C922.513 208.556 922.677 209.136 923.005 209.56C923.341 209.976 923.801 210.184 924.385 210.184C924.793 210.184 925.145 210.064 925.441 209.824C925.745 209.584 925.945 209.224 926.041 208.744L927.097 208.816C926.969 209.52 926.661 210.084 926.173 210.508C925.693 210.932 925.097 211.144 924.385 211.144ZM928.893 211V202.48H929.901V208.06L932.997 204.64H934.341L931.833 207.34L934.461 211H933.237L931.149 208.024L929.901 209.344V211H928.893ZM938.248 206.404L938.08 203.392V202.48H939.136V203.392L938.968 206.404H938.248Z" fill="white"/>
<path d="M750.474 247V241.528H748.77V240.64H750.474V240.232C750.474 239.664 750.618 239.232 750.906 238.936C751.202 238.632 751.65 238.48 752.25 238.48H754.29V239.368H752.25C752.002 239.368 751.81 239.448 751.674 239.608C751.546 239.76 751.482 239.968 751.482 240.232V240.64H754.17V241.528H751.482V247H750.474ZM758.281 247.144C757.649 247.144 757.145 246.932 756.769 246.508C756.393 246.076 756.205 245.484 756.205 244.732V240.64H757.213V244.456C757.213 245.072 757.321 245.528 757.537 245.824C757.761 246.112 758.101 246.256 758.557 246.256C759.053 246.256 759.445 246.096 759.733 245.776C760.021 245.448 760.165 245 760.165 244.432V240.64H761.173V247H760.213V245.968C759.861 246.752 759.217 247.144 758.281 247.144ZM763.328 247V240.64H764.252L764.276 241.78C764.444 241.348 764.712 241.028 765.08 240.82C765.456 240.604 765.864 240.496 766.304 240.496C766.792 240.496 767.196 240.604 767.516 240.82C767.844 241.036 768.092 241.328 768.26 241.696C768.428 242.056 768.512 242.46 768.512 242.908V247H767.504V243.196C767.504 242.604 767.388 242.156 767.156 241.852C766.924 241.54 766.568 241.384 766.088 241.384C765.6 241.384 765.184 241.54 764.84 241.852C764.504 242.156 764.336 242.604 764.336 243.196V247H763.328ZM773.284 247.144C772.692 247.144 772.176 247.008 771.736 246.736C771.296 246.464 770.956 246.08 770.716 245.584C770.476 245.08 770.356 244.492 770.356 243.82C770.356 243.148 770.476 242.564 770.716 242.068C770.956 241.572 771.296 241.188 771.736 240.916C772.176 240.636 772.692 240.496 773.284 240.496C773.996 240.496 774.584 240.688 775.048 241.072C775.52 241.448 775.82 241.992 775.948 242.704L774.892 242.776C774.796 242.352 774.604 242.028 774.316 241.804C774.036 241.572 773.692 241.456 773.284 241.456C772.7 241.456 772.24 241.668 771.904 242.092C771.576 242.508 771.412 243.084 771.412 243.82C771.412 244.556 771.576 245.136 771.904 245.56C772.24 245.976 772.7 246.184 773.284 246.184C773.692 246.184 774.044 246.064 774.34 245.824C774.644 245.584 774.844 245.224 774.94 244.744L775.996 244.816C775.868 245.52 775.56 246.084 775.072 246.508C774.592 246.932 773.996 247.144 773.284 247.144ZM781.247 247C780.023 247 779.411 246.416 779.411 245.248V241.528H777.311V240.64H779.411V239.152H780.419V240.64H782.951V241.528H780.419V245.248C780.419 245.824 780.695 246.112 781.247 246.112H782.951V247H781.247ZM784.866 247V246.112H787.422V241.528H784.986V240.64H788.43V246.112H790.626V247H784.866ZM787.326 239.644V238.468H788.382V239.644H787.326ZM794.702 247.144C794.118 247.144 793.606 247.008 793.166 246.736C792.734 246.464 792.398 246.08 792.158 245.584C791.918 245.08 791.798 244.492 791.798 243.82C791.798 243.14 791.918 242.552 792.158 242.056C792.398 241.56 792.734 241.176 793.166 240.904C793.606 240.632 794.118 240.496 794.702 240.496C795.286 240.496 795.794 240.632 796.226 240.904C796.666 241.176 797.006 241.56 797.246 242.056C797.486 242.552 797.606 243.14 797.606 243.82C797.606 244.492 797.486 245.08 797.246 245.584C797.006 246.08 796.666 246.464 796.226 246.736C795.794 247.008 795.286 247.144 794.702 247.144ZM794.702 246.184C795.286 246.184 795.738 245.976 796.058 245.56C796.386 245.136 796.55 244.556 796.55 243.82C796.55 243.084 796.386 242.508 796.058 242.092C795.738 241.668 795.286 241.456 794.702 241.456C794.118 241.456 793.662 241.668 793.334 242.092C793.014 242.508 792.854 243.084 792.854 243.82C792.854 244.556 793.014 245.136 793.334 245.56C793.662 245.976 794.118 246.184 794.702 246.184ZM799.305 247V240.64H800.229L800.253 241.78C800.421 241.348 800.689 241.028 801.057 240.82C801.433 240.604 801.841 240.496 802.281 240.496C802.769 240.496 803.173 240.604 803.493 240.82C803.821 241.036 804.069 241.328 804.237 241.696C804.405 242.056 804.489 242.46 804.489 242.908V247H803.481V243.196C803.481 242.604 803.365 242.156 803.133 241.852C802.901 241.54 802.545 241.384 802.065 241.384C801.577 241.384 801.161 241.54 800.817 241.852C800.481 242.156 800.313 242.604 800.313 243.196V247H799.305ZM679.709 283.192C679.109 283.192 678.577 283.068 678.113 282.82C677.649 282.572 677.277 282.232 676.997 281.8C676.717 281.36 676.553 280.852 676.505 280.276L677.585 280.204C677.673 280.836 677.901 281.324 678.269 281.668C678.645 282.012 679.133 282.184 679.733 282.184C680.325 282.184 680.777 282.072 681.089 281.848C681.409 281.624 681.569 281.304 681.569 280.888C681.569 280.616 681.505 280.38 681.377 280.18C681.257 279.972 681.025 279.78 680.681 279.604C680.345 279.428 679.845 279.248 679.181 279.064C678.589 278.896 678.109 278.712 677.741 278.512C677.381 278.312 677.117 278.068 676.949 277.78C676.789 277.492 676.709 277.136 676.709 276.712C676.709 276.232 676.821 275.812 677.045 275.452C677.277 275.084 677.605 274.8 678.029 274.6C678.453 274.392 678.957 274.288 679.541 274.288C680.125 274.288 680.625 274.408 681.041 274.648C681.457 274.88 681.785 275.2 682.025 275.608C682.273 276.016 682.429 276.48 682.493 277L681.413 277.072C681.341 276.552 681.149 276.128 680.837 275.8C680.533 275.464 680.093 275.296 679.517 275.296C678.989 275.296 678.569 275.424 678.257 275.68C677.945 275.928 677.789 276.256 677.789 276.664C677.789 276.928 677.845 277.148 677.957 277.324C678.077 277.492 678.285 277.644 678.581 277.78C678.877 277.908 679.293 278.048 679.829 278.2C680.525 278.392 681.077 278.608 681.485 278.848C681.901 279.088 682.197 279.376 682.373 279.712C682.557 280.04 682.649 280.44 682.649 280.912C682.649 281.36 682.525 281.756 682.277 282.1C682.029 282.444 681.685 282.712 681.245 282.904C680.805 283.096 680.293 283.192 679.709 283.192ZM684.132 283V282.112H686.688V277.528H684.252V276.64H687.696V282.112H689.892V283H684.132ZM686.592 275.644V274.468H687.648V275.644H686.592ZM693.931 284.944C693.251 284.944 692.671 284.776 692.191 284.44C691.711 284.104 691.403 283.656 691.267 283.096L692.323 283.024C692.419 283.32 692.587 283.552 692.827 283.72C693.075 283.896 693.443 283.984 693.931 283.984C694.507 283.984 694.947 283.868 695.251 283.636C695.563 283.404 695.719 283.056 695.719 282.592V281.56C695.567 281.896 695.323 282.164 694.987 282.364C694.651 282.564 694.275 282.664 693.859 282.664C693.323 282.664 692.843 282.532 692.419 282.268C692.003 282.004 691.675 281.64 691.435 281.176C691.203 280.712 691.087 280.18 691.087 279.58C691.087 278.972 691.203 278.44 691.435 277.984C691.667 277.52 691.987 277.156 692.395 276.892C692.811 276.628 693.283 276.496 693.811 276.496C694.259 276.496 694.659 276.6 695.011 276.808C695.371 277.016 695.623 277.296 695.767 277.648V276.64H696.727V282.568C696.727 283.312 696.479 283.892 695.983 284.308C695.495 284.732 694.811 284.944 693.931 284.944ZM693.907 281.704C694.451 281.704 694.887 281.516 695.215 281.14C695.543 280.756 695.711 280.236 695.719 279.58C695.735 278.924 695.575 278.408 695.239 278.032C694.903 277.648 694.459 277.456 693.907 277.456C693.347 277.456 692.911 277.648 692.599 278.032C692.295 278.408 692.143 278.924 692.143 279.58C692.143 280.236 692.299 280.756 692.611 281.14C692.931 281.516 693.363 281.704 693.907 281.704ZM698.571 283V276.64H699.495L699.519 277.78C699.687 277.348 699.955 277.028 700.323 276.82C700.699 276.604 701.107 276.496 701.547 276.496C702.035 276.496 702.439 276.604 702.759 276.82C703.087 277.036 703.335 277.328 703.503 277.696C703.671 278.056 703.755 278.46 703.755 278.908V283H702.747V279.196C702.747 278.604 702.631 278.156 702.399 277.852C702.167 277.54 701.811 277.384 701.331 277.384C700.843 277.384 700.427 277.54 700.083 277.852C699.747 278.156 699.579 278.604 699.579 279.196V283H698.571ZM705.718 283V281.992H707.842V275.488H705.718V274.48H710.998V275.488H708.874V281.992H710.998V283H705.718ZM712.961 283V276.64H713.885L713.909 277.78C714.077 277.348 714.345 277.028 714.713 276.82C715.089 276.604 715.497 276.496 715.937 276.496C716.425 276.496 716.829 276.604 717.149 276.82C717.477 277.036 717.725 277.328 717.893 277.696C718.061 278.056 718.145 278.46 718.145 278.908V283H717.137V279.196C717.137 278.604 717.021 278.156 716.789 277.852C716.557 277.54 716.201 277.384 715.721 277.384C715.233 277.384 714.817 277.54 714.473 277.852C714.137 278.156 713.969 278.604 713.969 279.196V283H712.961Z" fill="#66D9EF"/>
<path d="M813.768 247V238.48H816.36C817.248 238.48 817.956 238.712 818.484 239.176C819.02 239.632 819.288 240.268 819.288 241.084C819.288 241.9 819.02 242.54 818.484 243.004C817.956 243.46 817.248 243.688 816.36 243.688H814.8V247H813.768ZM814.8 242.68H816.24C816.912 242.68 817.408 242.544 817.728 242.272C818.048 241.992 818.208 241.596 818.208 241.084C818.208 240.564 818.048 240.168 817.728 239.896C817.408 239.624 816.912 239.488 816.24 239.488H814.8V242.68ZM822.643 247.144C822.243 247.144 821.883 247.072 821.563 246.928C821.243 246.784 820.991 246.584 820.807 246.328C820.623 246.064 820.531 245.76 820.531 245.416C820.531 244.872 820.691 244.452 821.011 244.156C821.339 243.852 821.851 243.632 822.547 243.496L824.683 243.064C824.683 242.52 824.559 242.116 824.311 241.852C824.071 241.588 823.723 241.456 823.267 241.456C822.827 241.456 822.483 241.556 822.235 241.756C821.987 241.948 821.815 242.228 821.719 242.596L820.651 242.512C820.771 241.912 821.055 241.428 821.503 241.06C821.959 240.684 822.547 240.496 823.267 240.496C824.035 240.496 824.631 240.728 825.055 241.192C825.479 241.648 825.691 242.28 825.691 243.088V245.728C825.691 245.872 825.723 245.972 825.787 246.028C825.851 246.084 825.947 246.112 826.075 246.112H826.483V247C826.355 247.016 826.179 247.024 825.955 247.024C825.603 247.024 825.323 246.952 825.115 246.808C824.915 246.664 824.783 246.428 824.719 246.1C824.551 246.412 824.275 246.664 823.891 246.856C823.515 247.048 823.099 247.144 822.643 247.144ZM822.739 246.256C823.387 246.256 823.871 246.092 824.191 245.764C824.519 245.436 824.683 245.008 824.683 244.48V243.928L822.739 244.312C822.307 244.392 822.007 244.516 821.839 244.684C821.671 244.844 821.587 245.056 821.587 245.32C821.587 245.616 821.687 245.848 821.887 246.016C822.095 246.176 822.379 246.256 822.739 246.256ZM830.642 248.944C829.962 248.944 829.382 248.776 828.902 248.44C828.422 248.104 828.114 247.656 827.978 247.096L829.034 247.024C829.13 247.32 829.298 247.552 829.538 247.72C829.786 247.896 830.154 247.984 830.642 247.984C831.218 247.984 831.658 247.868 831.962 247.636C832.274 247.404 832.43 247.056 832.43 246.592V245.56C832.278 245.896 832.034 246.164 831.698 246.364C831.362 246.564 830.986 246.664 830.57 246.664C830.034 246.664 829.554 246.532 829.13 246.268C828.714 246.004 828.386 245.64 828.146 245.176C827.914 244.712 827.798 244.18 827.798 243.58C827.798 242.972 827.914 242.44 828.146 241.984C828.378 241.52 828.698 241.156 829.106 240.892C829.522 240.628 829.994 240.496 830.522 240.496C830.97 240.496 831.37 240.6 831.722 240.808C832.082 241.016 832.334 241.296 832.478 241.648V240.64H833.438V246.568C833.438 247.312 833.19 247.892 832.694 248.308C832.206 248.732 831.522 248.944 830.642 248.944ZM830.618 245.704C831.162 245.704 831.598 245.516 831.926 245.14C832.254 244.756 832.422 244.236 832.43 243.58C832.446 242.924 832.286 242.408 831.95 242.032C831.614 241.648 831.17 241.456 830.618 241.456C830.058 241.456 829.622 241.648 829.31 242.032C829.006 242.408 828.854 242.924 828.854 243.58C828.854 244.236 829.01 244.756 829.322 245.14C829.642 245.516 830.074 245.704 830.618 245.704ZM837.981 247.144C837.381 247.144 836.861 247.008 836.421 246.736C835.989 246.464 835.653 246.08 835.413 245.584C835.181 245.08 835.065 244.492 835.065 243.82C835.065 243.148 835.181 242.564 835.413 242.068C835.653 241.572 835.985 241.188 836.409 240.916C836.841 240.636 837.349 240.496 837.933 240.496C838.485 240.496 838.973 240.628 839.397 240.892C839.821 241.148 840.153 241.524 840.393 242.02C840.633 242.516 840.753 243.12 840.753 243.832V244.132H836.121C836.161 244.812 836.341 245.324 836.661 245.668C836.989 246.012 837.429 246.184 837.981 246.184C838.397 246.184 838.737 246.088 839.001 245.896C839.273 245.696 839.461 245.436 839.565 245.116L840.645 245.2C840.477 245.768 840.157 246.236 839.685 246.604C839.221 246.964 838.653 247.144 837.981 247.144ZM836.121 243.244H839.649C839.601 242.628 839.421 242.176 839.109 241.888C838.797 241.6 838.405 241.456 837.933 241.456C837.445 241.456 837.041 241.608 836.721 241.912C836.409 242.208 836.209 242.652 836.121 243.244Z" fill="#5DBCF7"/>
<line x1="1477.78" y1="325.552" x2="1912.78" y2="109.552" stroke="white" stroke-opacity="0.15"/>
<line x1="1483.5" y1="700.008" x2="1477.5" y2="326.008" stroke="white" stroke-opacity="0.15"/>
</g>
<defs>
<filter id="filter0_i_477_3435" x="1045.5" y="-143.935" width="876" height="1087.85" filterUnits="userSpaceOnUse" color-interpolation-filters="sRGB">
<feFlood flood-opacity="0" result="BackgroundImageFix"/>
<feBlend mode="normal" in="SourceGraphic" in2="BackgroundImageFix" result="shape"/>
<feColorMatrix in="SourceAlpha" type="matrix" values="0 0 0 0 0 0 0 0 0 0 0 0 0 0 0 0 0 0 127 0" result="hardAlpha"/>
<feOffset dy="-40"/>
<feGaussianBlur stdDeviation="48.25"/>
<feComposite in2="hardAlpha" operator="arithmetic" k2="-1" k3="1"/>
<feColorMatrix type="matrix" values="0 0 0 0 1 0 0 0 0 1 0 0 0 0 1 0 0 0 0.2 0"/>
<feBlend mode="normal" in2="shape" result="effect1_innerShadow_477_3435"/>
</filter>
<filter id="filter1_i_477_3435" x="1045.38" y="223.201" width="871.721" height="477.857" filterUnits="userSpaceOnUse" color-interpolation-filters="sRGB">
<feFlood flood-opacity="0" result="BackgroundImageFix"/>
<feBlend mode="normal" in="SourceGraphic" in2="BackgroundImageFix" result="shape"/>
<feColorMatrix in="SourceAlpha" type="matrix" values="0 0 0 0 0 0 0 0 0 0 0 0 0 0 0 0 0 0 127 0" result="hardAlpha"/>
<feOffset dy="-40"/>
<feGaussianBlur stdDeviation="48.25"/>
<feComposite in2="hardAlpha" operator="arithmetic" k2="-1" k3="1"/>
<feColorMatrix type="matrix" values="0 0 0 0 1 0 0 0 0 1 0 0 0 0 1 0 0 0 0.2 0"/>
<feBlend mode="normal" in2="shape" result="effect1_innerShadow_477_3435"/>
</filter>
<filter id="filter2_i_477_3435" x="1788.77" y="260.556" width="127.461" height="106.888" filterUnits="userSpaceOnUse" color-interpolation-filters="sRGB">
<feFlood flood-opacity="0" result="BackgroundImageFix"/>
<feBlend mode="normal" in="SourceGraphic" in2="BackgroundImageFix" result="shape"/>
<feColorMatrix in="SourceAlpha" type="matrix" values="0 0 0 0 0 0 0 0 0 0 0 0 0 0 0 0 0 0 127 0" result="hardAlpha"/>
<feOffset dy="-40"/>
<feGaussianBlur stdDeviation="48.25"/>
<feComposite in2="hardAlpha" operator="arithmetic" k2="-1" k3="1"/>
<feColorMatrix type="matrix" values="0 0 0 0 1 0 0 0 0 1 0 0 0 0 1 0 0 0 0.2 0"/>
<feBlend mode="normal" in2="shape" result="effect1_innerShadow_477_3435"/>
</filter>
<filter id="filter3_i_477_3435" x="1045.37" y="-143.907" width="868.25" height="469.466" filterUnits="userSpaceOnUse" color-interpolation-filters="sRGB">
<feFlood flood-opacity="0" result="BackgroundImageFix"/>
<feBlend mode="normal" in="SourceGraphic" in2="BackgroundImageFix" result="shape"/>
<feColorMatrix in="SourceAlpha" type="matrix" values="0 0 0 0 0 0 0 0 0 0 0 0 0 0 0 0 0 0 127 0" result="hardAlpha"/>
<feOffset dy="-40"/>
<feGaussianBlur stdDeviation="48.25"/>
<feComposite in2="hardAlpha" operator="arithmetic" k2="-1" k3="1"/>
<feColorMatrix type="matrix" values="0 0 0 0 1 0 0 0 0 1 0 0 0 0 1 0 0 0 0.2 0"/>
<feBlend mode="normal" in2="shape" result="effect1_innerShadow_477_3435"/>
</filter>
<filter id="filter4_i_477_3435" x="1045.33" y="404.003" width="785.289" height="420.554" filterUnits="userSpaceOnUse" color-interpolation-filters="sRGB">
<feFlood flood-opacity="0" result="BackgroundImageFix"/>
<feBlend mode="normal" in="SourceGraphic" in2="BackgroundImageFix" result="shape"/>
<feColorMatrix in="SourceAlpha" type="matrix" values="0 0 0 0 0 0 0 0 0 0 0 0 0 0 0 0 0 0 127 0" result="hardAlpha"/>
<feOffset dy="-40"/>
<feGaussianBlur stdDeviation="48.25"/>
<feComposite in2="hardAlpha" operator="arithmetic" k2="-1" k3="1"/>
<feColorMatrix type="matrix" values="0 0 0 0 1 0 0 0 0 1 0 0 0 0 1 0 0 0 0.2 0"/>
<feBlend mode="normal" in2="shape" result="effect1_innerShadow_477_3435"/>
</filter>
<filter id="filter5_f_477_3435" x="929.309" y="-26.6992" width="412.385" height="443.399" filterUnits="userSpaceOnUse" color-interpolation-filters="sRGB">
<feFlood flood-opacity="0" result="BackgroundImageFix"/>
<feBlend mode="normal" in="SourceGraphic" in2="BackgroundImageFix" result="shape"/>
<feGaussianBlur stdDeviation="29" result="effect1_foregroundBlur_477_3435"/>
</filter>
<filter id="filter6_f_477_3435" x="696.346" y="-126.279" width="1068.51" height="863.148" filterUnits="userSpaceOnUse" color-interpolation-filters="sRGB">
<feFlood flood-opacity="0" result="BackgroundImageFix"/>
<feBlend mode="normal" in="SourceGraphic" in2="BackgroundImageFix" result="shape"/>
<feGaussianBlur stdDeviation="107.5" result="effect1_foregroundBlur_477_3435"/>
</filter>
<filter id="filter7_f_477_3435" x="789.132" y="110.025" width="552.05" height="444.46" filterUnits="userSpaceOnUse" color-interpolation-filters="sRGB">
<feFlood flood-opacity="0" result="BackgroundImageFix"/>
<feBlend mode="normal" in="SourceGraphic" in2="BackgroundImageFix" result="shape"/>
<feGaussianBlur stdDeviation="61.1067" result="effect1_foregroundBlur_477_3435"/>
</filter>
<filter id="filter8_f_477_3435" x="1014.87" y="-13.1234" width="636.838" height="636.838" filterUnits="userSpaceOnUse" color-interpolation-filters="sRGB">
<feFlood flood-opacity="0" result="BackgroundImageFix"/>
<feBlend mode="normal" in="SourceGraphic" in2="BackgroundImageFix" result="shape"/>
<feGaussianBlur stdDeviation="50.9223" result="effect1_foregroundBlur_477_3435"/>
</filter>
<filter id="filter9_f_477_3435" x="967.49" y="22.5425" width="471.097" height="305.016" filterUnits="userSpaceOnUse" color-interpolation-filters="sRGB">
<feFlood flood-opacity="0" result="BackgroundImageFix"/>
<feBlend mode="normal" in="SourceGraphic" in2="BackgroundImageFix" result="shape"/>
<feGaussianBlur stdDeviation="40.8684" result="effect1_foregroundBlur_477_3435"/>
</filter>
<filter id="filter10_f_477_3435" x="789.132" y="110.025" width="552.05" height="444.46" filterUnits="userSpaceOnUse" color-interpolation-filters="sRGB">
<feFlood flood-opacity="0" result="BackgroundImageFix"/>
<feBlend mode="normal" in="SourceGraphic" in2="BackgroundImageFix" result="shape"/>
<feGaussianBlur stdDeviation="61.1067" result="effect1_foregroundBlur_477_3435"/>
</filter>
<filter id="filter11_f_477_3435" x="1014.87" y="-13.1234" width="636.838" height="636.838" filterUnits="userSpaceOnUse" color-interpolation-filters="sRGB">
<feFlood flood-opacity="0" result="BackgroundImageFix"/>
<feBlend mode="normal" in="SourceGraphic" in2="BackgroundImageFix" result="shape"/>
<feGaussianBlur stdDeviation="50.9223" result="effect1_foregroundBlur_477_3435"/>
</filter>
<filter id="filter12_f_477_3435" x="967.49" y="22.5425" width="471.097" height="305.016" filterUnits="userSpaceOnUse" color-interpolation-filters="sRGB">
<feFlood flood-opacity="0" result="BackgroundImageFix"/>
<feBlend mode="normal" in="SourceGraphic" in2="BackgroundImageFix" result="shape"/>
<feGaussianBlur stdDeviation="40.8684" result="effect1_foregroundBlur_477_3435"/>
</filter>
<filter id="filter13_f_477_3435" x="17.5086" y="126.07" width="1055.29" height="75.6" filterUnits="userSpaceOnUse" color-interpolation-filters="sRGB">
<feFlood flood-opacity="0" result="BackgroundImageFix"/>
<feBlend mode="normal" in="SourceGraphic" in2="BackgroundImageFix" result="shape"/>
<feGaussianBlur stdDeviation="13.9" result="effect1_foregroundBlur_477_3435"/>
</filter>
<filter id="filter14_f_477_3435" x="554.7" y="98.7" width="276.6" height="159.6" filterUnits="userSpaceOnUse" color-interpolation-filters="sRGB">
<feFlood flood-opacity="0" result="BackgroundImageFix"/>
<feBlend mode="normal" in="SourceGraphic" in2="BackgroundImageFix" result="shape"/>
<feGaussianBlur stdDeviation="27.15" result="effect1_foregroundBlur_477_3435"/>
</filter>
<filter id="filter15_f_477_3435" x="633.7" y="98.7" width="386.6" height="159.6" filterUnits="userSpaceOnUse" color-interpolation-filters="sRGB">
<feFlood flood-opacity="0" result="BackgroundImageFix"/>
<feBlend mode="normal" in="SourceGraphic" in2="BackgroundImageFix" result="shape"/>
<feGaussianBlur stdDeviation="27.15" result="effect1_foregroundBlur_477_3435"/>
</filter>
<linearGradient id="paint0_linear_477_3435" x1="1483.5" y1="-105" x2="1483.5" y2="945" gradientUnits="userSpaceOnUse">
<stop offset="0.035" stop-color="white" stop-opacity="0"/>
<stop offset="0.421844" stop-color="white"/>
<stop offset="1" stop-color="white" stop-opacity="0"/>
</linearGradient>
<linearGradient id="paint1_linear_477_3435" x1="1483.5" y1="262" x2="1483.5" y2="1312" gradientUnits="userSpaceOnUse">
<stop offset="0.035" stop-color="white" stop-opacity="0"/>
<stop offset="0.421844" stop-color="white"/>
<stop offset="1" stop-color="white" stop-opacity="0"/>
</linearGradient>
<linearGradient id="paint2_linear_477_3435" x1="1449.97" y1="144.486" x2="1449.97" y2="1134.49" gradientUnits="userSpaceOnUse">
<stop offset="0.035" stop-color="white" stop-opacity="0"/>
<stop offset="0.421844" stop-color="white"/>
<stop offset="1" stop-color="white" stop-opacity="0"/>
</linearGradient>
<linearGradient id="paint3_linear_477_3435" x1="1483.5" y1="-110" x2="1483.5" y2="940" gradientUnits="userSpaceOnUse">
<stop offset="0.035" stop-color="white" stop-opacity="0"/>
<stop offset="0.421844" stop-color="white"/>
<stop offset="1" stop-color="white" stop-opacity="0"/>
</linearGradient>
<linearGradient id="paint4_linear_477_3435" x1="1483.5" y1="388" x2="1483.5" y2="1438" gradientUnits="userSpaceOnUse">
<stop offset="0.035" stop-color="white" stop-opacity="0"/>
<stop offset="0.421844" stop-color="white"/>
<stop offset="1" stop-color="white" stop-opacity="0"/>
</linearGradient>
<linearGradient id="paint5_linear_477_3435" x1="1102.5" y1="136.5" x2="1422.5" y2="813" gradientUnits="userSpaceOnUse">
<stop stop-color="white"/>
<stop stop-color="#FDFDFD" stop-opacity="0.97767"/>
<stop offset="1" stop-color="#999999" stop-opacity="0"/>
</linearGradient>
<linearGradient id="paint6_linear_477_3435" x1="1043.55" y1="222.885" x2="1272.97" y2="149.198" gradientUnits="userSpaceOnUse">
<stop stop-color="white"/>
<stop offset="0.19" stop-color="white" stop-opacity="0"/>
</linearGradient>
<linearGradient id="paint7_linear_477_3435" x1="8" y1="168.63" x2="1045" y2="168.63" gradientUnits="userSpaceOnUse">
<stop stop-color="#5FAEF7" stop-opacity="0"/>
<stop offset="0.647641" stop-color="#5FAEF7"/>
<stop offset="0.84" stop-color="#6B5DF7"/>
<stop offset="1" stop-color="white"/>
</linearGradient>
<linearGradient id="paint8_linear_477_3435" x1="45.3086" y1="174.37" x2="1045" y2="174.37" gradientUnits="userSpaceOnUse">
<stop stop-color="#5FAEF7" stop-opacity="0"/>
<stop offset="0.84" stop-color="#6B5DF7"/>
<stop offset="1" stop-color="white"/>
</linearGradient>
<radialGradient id="paint9_radial_477_3435" cx="0" cy="0" r="1" gradientUnits="userSpaceOnUse" gradientTransform="translate(605 165) rotate(27.8476) scale(29.9708 54.1941)">
<stop stop-color="#6B5DF7"/>
<stop offset="0.235017" stop-color="#5DBCF7"/>
<stop offset="0.643672" stop-color="#6B5DF7" stop-opacity="0"/>
<stop offset="0.827525" stop-color="#5DBCF7" stop-opacity="0"/>
<stop offset="1" stop-color="#3F3791" stop-opacity="0"/>
</radialGradient>
<radialGradient id="paint10_radial_477_3435" cx="0" cy="0" r="1" gradientUnits="userSpaceOnUse" gradientTransform="translate(970 166.5) rotate(150.781) scale(33.8008 61.1196)">
<stop stop-color="white"/>
<stop offset="1" stop-color="#3F3791" stop-opacity="0"/>
</radialGradient>
<clipPath id="clip0_477_3435">
<rect width="1921" height="945" fill="white"/>
</clipPath>
</defs>
</svg>
